PathFileType	4	(X/Y/Z)	8_2_57_p1_0-273_filt_butterworth.trc
DataRate	CameraRate	NumFrames	NumMarkers	Units	OrigDataRate	OrigDataStartFrame	OrigNumFrames
60.0	60.0	6	27	m	60.0	0	273
Frame#	Time	RHip			RKnee			RAnkle			RBigToe			RSmallToe			RHeel			LHip			LKnee			LAnkle			LBigToe			LSmallToe			LHeel			Neck			Head			Nose			RShoulder			RElbow			RWrist			RThumb			RIndex			RPinky			LShoulder			LElbow			LWrist			LThumb			LIndex			LPinky			
		X1	Y1	Z1	X2	Y2	Z2	X3	Y3	Z3	X4	Y4	Z4	X5	Y5	Z5	X6	Y6	Z6	X7	Y7	Z7	X8	Y8	Z8	X9	Y9	Z9	X10	Y10	Z10	X11	Y11	Z11	X12	Y12	Z12	X13	Y13	Z13	X14	Y14	Z14	X15	Y15	Z15	X16	Y16	Z16	X17	Y17	Z17	X18	Y18	Z18	X19	Y19	Z19	X20	Y20	Z20	X21	Y21	Z21	X22	Y22	Z22	X23	Y23	Z23	X24	Y24	Z24	X25	Y25	Z25	X26	Y26	Z26	X27	Y27	Z27	
0	0.0	0.2695784698444458	0.7737583168302069	0.7720907858274477	0.27974348946203187	0.29096272685563274	0.789506947531492	0.2379984521561584	-0.1717397131609882	0.9127278956213011	0.21009650831994706	-0.16571886444267675	0.6709993508010389	0.26466411707401805	-0.18631259377719134	0.7252731788968353	0.2226419464984236	-0.2157448737532802	0.9474065739211105	0.04563445823295745	0.7657788279027863	0.7878398737698846	0.032874832193297496	0.31814115080384364	0.7927661578644583	0.031518445827826876	-0.11724196734120823	0.8523053941540952	0.0570957833422366	-0.16364805986358008	0.6821667410613114	-0.0018993904351852747	-0.15191949661505044	0.7211658100580133	0.055874475822354094	-0.20013504221607592	0.9496097176633331	0.1834963472993647	1.4075605608272617	0.7698921459768195	0.2072188732481103	1.6546419073796774	0.7106354916611705	0.19530663407311946	1.5141987390545673	0.6592946144888301	0.3478996596582436	1.265734609821624	0.7705153920769084	0.3533318462474989	1.0001655903122282	0.7019676094043132	0.1990770742472726	0.8012939340938036	0.6313746121084823	0.14518252453785288	0.6900112843040825	0.599487613737807	0.12385014117311292	0.6391508683541492	0.6757194034925067	0.13428845815948232	0.658124495896948	0.6533013299876215	0.015504829585761794	1.3058512792244708	0.789415267520424	-0.019464509292557695	1.0157219949104812	0.7295134946486463	0.07621294778964956	0.8360882434959306	0.5893126828108076	0.18388415727943308	0.747927682644025	0.5788785395157834	0.18031116396703137	0.7110012933495204	0.5915138049901156	0.11602241723154831	0.6715702380481824	0.6402652388675691	
1	0.0166666666666666	0.268213362523753	0.7709188438100767	0.7728529674902532	0.2785190627049942	0.2892244241788877	0.792587599400681	0.23744223290026795	-0.1721648254982615	0.9124370604380827	0.21010846680726572	-0.16514102779952966	0.6708285084907507	0.2660017351499665	-0.18893105344526923	0.7295723539537715	0.22191427440594003	-0.21530426218027907	0.9471944521070452	0.04497947014454951	0.7618811748361096	0.7865069010778898	0.03376581025710214	0.3145517882736114	0.7932199036959751	0.031786055157223596	-0.11686402308792981	0.8503730506989556	0.056371076972235326	-0.16784342391909277	0.6892342870457822	-0.0041285443964868915	-0.14847032730995652	0.7198425910908881	0.05611120037700246	-0.2021869276834458	0.9492799233170346	0.18310967595743868	1.4074905282352388	0.7698277588543616	0.20718464807559164	1.6532048421061367	0.7104059718971953	0.19422447581634844	1.514590722284385	0.6540650371105197	0.34790975040917055	1.2657409116500618	0.7704550717204437	0.35343737750420434	1.0003711998937614	0.702537566929486	0.19987143362010745	0.7980284403940211	0.6336849231553936	0.14510549822416352	0.6860553744272692	0.599373856022163	0.12301646197159427	0.6368043146563324	0.6763425218352288	0.13547213004897993	0.6537587265363987	0.6579071114107686	0.01571339382493956	1.3059192945116525	0.7887683159074399	-0.018342155322203103	1.0166530600282349	0.7246727137789407	0.07791105578761538	0.8363963579929234	0.5884406651185228	0.18734643730277661	0.7501045557679953	0.5733373807019767	0.18204193062156	0.7087522824789445	0.5915815009637194	0.11973150119226325	0.6720172788263346	0.6382591072398311	
2	0.0333333333333333	0.2670801330134093	0.7686280038933402	0.7738537927824264	0.277577620980985	0.28790775949473424	0.794984175926999	0.23714458123024837	-0.17226924056491996	0.911928279998065	0.21008952029803926	-0.16485391594637544	0.6706843654696533	0.26695324824227645	-0.19079184558684756	0.7325937768797889	0.22130871009630237	-0.21494800357758598	0.9470199085462085	0.044488900480151805	0.7590043347697009	0.7854884677965782	0.03457218279051548	0.3117251213389069	0.7936299570392233	0.03209122340044368	-0.11672053539277062	0.8490338292591153	0.055799751877257754	-0.17051605098619013	0.693676065158054	-0.005789009266634869	-0.14627065057494623	0.7189361859543447	0.05629719528504757	-0.20386955381342023	0.9490163927380435	0.18298856574430938	1.4074651368398916	0.7698088552853259	0.2071627439652811	1.6522670512819675	0.7102721609003669	0.19330912552500815	1.514853752747479	0.6506421472260793	0.3479196148507622	1.2657406760651468	0.7704086127641131	0.35292659027548967	1.0003073778672387	0.7030702294937872	0.20015028847299754	0.7958214034248566	0.6340816821508362	0.1448908084565333	0.6834130021081178	0.5993399902892029	0.12225995160168693	0.634588739306227	0.6772157145611688	0.13621640671854243	0.651370323821152	0.6590919913487832	0.01575054973373845	1.305937877065906	0.7886073540163607	-0.017288128238116846	1.0174355001067097	0.7214927777673126	0.0796523382945722	0.836972762910093	0.5867970795741572	0.18989034007807162	0.7522443499945196	0.5679609340306255	0.1829792980350204	0.706871749730936	0.5917831508230929	0.1224307015016757	0.67331190666673	0.6342699282297642	
3	0.05	0.26615539233679336	0.7668711111016251	0.7750390837240181	0.2768906721496384	0.2869710463108855	0.7967644474004387	0.23707629425889398	-0.1720926249192894	0.9112378538514742	0.2100505484200481	-0.16477315713189483	0.6705636545853795	0.2675735005044786	-0.19200151419365935	0.7345306219633811	0.22081569650383684	-0.2146687240178462	0.946880036239331	0.044147712852515716	0.7570822605552849	0.7847492772328843	0.03529575361389325	0.3095973040957065	0.7939962234881254	0.03242749636109814	-0.11678778917503653	0.848234369509556	0.05541157989956283	-0.1719935424152273	0.6959849231788414	-0.006917776836969469	-0.14509775687428766	0.7183911937660526	0.056437535959125984	-0.20521225676783716	0.9488135458870478	0.18303856353166237	1.4074725715302923	0.7698181009776897	0.2071502948522477	1.6517373191655917	0.7102133911305737	0.1925262322651404	1.5150120789771053	0.6486838968010871	0.3479284698190357	1.2657349690249617	0.7703744343326702	0.35196622346597456	1.0000202329392485	0.7035535808702652	0.20003277387478913	0.7944739241217997	0.632955256693053	0.14464876416140987	0.6819381667503623	0.5992284643067719	0.12172950363699994	0.6327228759473246	0.6778314303086714	0.13666055186888865	0.6506013185240056	0.6575447540295919	0.015674591687577483	1.3059260649471016	0.7887701997920749	-0.016252003661440965	1.0180580075936148	0.7195506674466058	0.08135306040058651	0.8376830094106581	0.5846427335739549	0.19168871814965324	0.7543592565882642	0.5627369115011608	0.18325762291311432	0.7053920763538276	0.5918885619101111	0.1242178461222752	0.675199949311374	0.6287630387518203	
4	0.0666666666666666	0.2654157515172839	0.7656334794565591	0.7763546623350792	0.27642972407058886	0.2863725981350538	0.7979961841109929	0.23720816909899908	-0.17167464511969588	0.9104020815485369	0.21000243080107273	-0.16481437960476894	0.6704631086855621	0.2679173360901036	-0.19266660325743884	0.7355760634930405	0.22042567656286946	-0.21445904957370526	0.9467719281871436	0.04394087087439262	0.7560489050445867	0.7842540326937422	0.03593832654759119	0.30810449063998724	0.7943186086366039	0.03278841984279798	-0.11704206935403366	0.8479213111252596	0.05523633288140952	-0.17260349955655954	0.6966537088888585	-0.007551838898830952	-0.14472893667224904	0.7181522136436806	0.056537297811874235	-0.20624437270853496	0.9486658027247349	0.18316521619118323	1.4075010171955125	0.7698381616394296	0.2071444346715606	1.6515244300154304	0.710208995047704	0.19184144510278697	1.5150899495065195	0.6478482378011221	0.3479355321500081	1.2657248564875903	0.770350955550869	0.3507230159802786	0.9995558738163809	0.7039756048319683	0.1996380248943285	0.7937871034203396	0.6306960143802868	0.1444896742652409	0.681484867757737	0.5988817258427144	0.12157401165114237	0.6314254582231162	0.677682117716081	0.13694382920073753	0.6510937414177569	0.6539541836811221	0.015543814061875674	1.3059028962151082	0.7890946711794711	-0.015183357213317521	1.0185092749366593	0.7184233636496642	0.08292948719572482	0.8383926486578371	0.5822384345141601	0.19291442406185663	0.7564614668138957	0.5576530251130137	0.18301126196154346	0.7043456435959522	0.5916675415666492	0.12519076301655122	0.677427234502271	0.622203775720451	
5	0.0833333333333333	0.26483782157825964	0.7649004229797703	0.777746350635661	0.27616628460347076	0.2860707284749527	0.7987471563486541	0.23751100286335802	-0.1710549677244649	0.9094572626394793	0.2099560470688941	-0.16489321161368303	0.6703794606178344	0.2680395991526828	-0.19289365676992437	0.7359232757572608	0.22012909320772636	-0.21431160631780866	0.9466926773903774	0.04385333815853392	0.7558382210893307	0.7839674374860865	0.03650170541196501	0.3071828350677259	0.7945970180785813	0.03316753964915422	-0.11745966084906777	0.8480412937812085	0.05530378266505689	-0.17267352376054698	0.6961752700688196	-0.007728187243559595	-0.14494148043310226	0.7181638447048992	0.056601556255928887	-0.2069952377973519	0.9485675832117926	0.18327407059455791	1.4075386587246235	0.7698517029785241	0.20714229735828948	1.6515371680899045	0.7102383051116465	0.19122041310399007	1.5151116128689768	0.6477931221917632	0.3479400186796973	1.265711404411115	0.7703365955434639	0.3493637067230221	0.9989604092052241	0.7043242851519457	0.19908517660046235	0.7935620422559645	0.6276943228107811	0.1445238476944744	0.6819071045339729	0.5981422226648758	0.12194236921772353	0.6309152197770914	0.6762602254217427	0.13720550241480822	0.6524896232752002	0.6490090645313011	0.015416511232052075	1.305887408929795	0.7894185861234384	-0.014031764514888596	1.018777994583551	0.7176878472093325	0.08429788377005382	0.838967231814847	0.5798449897910176	0.19374031035901745	0.7585631719360781	0.552696986865616	0.18237457188600997	0.7037648327056396	0.5908898971345826	0.12544728014699352	0.6797395899814241	0.6150574760501089	
